<svg xmlns="http://www.w3.org/2000/svg" viewBox="0 0 64 64" x="0px" y="0px"><title>Barrel-oil-petroleum-Engine-Gasoline-service</title><g><path d="M54,29.59,34.41,10H29V2H7v8a5,5,0,0,0-5,5V57a5,5,0,0,0,5,5H49a5,5,0,0,0,5-5V49.39l8-2.67V38H54ZM46.59,25,43,28.59,41.41,27,45,23.41Zm-3,7H32V20.41Zm0-10L40,25.59,38.41,24,42,20.41Zm-3-3L37,22.59,35.41,21,39,17.41ZM9,4h2V8h2V4h2V8h2V4h2V8h2V4h2V8h2V4h2v6H9ZM7,60a3,3,0,0,1-3-3V17H22V15H4a3,3,0,0,1,3-3H33.59l4,4L34,19.59l-4-4V34H48.41l-4-4L48,26.41l4,4V38H30v8.68l10.12,4L41.8,60Zm45-3a3,3,0,0,1-3,3h-.8l1.68-9.24L52,50.05Zm8-17v5.28l-11.88,4L46.17,60H43.83L41.88,49.28l-9.88-4V44H54V42H32V40Z"/><path d="M15,24.33l-.8,1.07C14,25.74,8,33.75,8,41.27A6.88,6.88,0,0,0,15,48a6.88,6.88,0,0,0,7-6.73c0-7.52-5.95-15.53-6.2-15.87ZM15,46a4.87,4.87,0,0,1-5-4.73c0-5.27,3.41-11.08,5-13.51,1.59,2.42,5,8.23,5,13.51A4.87,4.87,0,0,1,15,46Z"/><rect x="10" y="50" width="10" height="2"/><rect x="8" y="54" width="14" height="2"/><rect x="56" y="42" width="2" height="2"/><rect x="24" y="15" width="2" height="2"/></g></svg>