<svg xmlns="http://www.w3.org/2000/svg" viewBox="0 0 64 64" x="0px" y="0px"><title>Accumulator-Battery-charge-car-service</title><g><path d="M59,21H55V17H53V9H45v8H43v4H38.39l1-3H33.12l1-9H30.28l-4,12H21V17H19V9H11v8H9v4H5V55H2v7H62V55H59ZM47,11h4v2H49v2h2v2H47Zm-2,8h8v2H45ZM31.72,11h.16l-1,9h5.73L32.28,33h-.16l1-9H27.39ZM13,15h2V13H13V11h4v6H13Zm-2,4h8v2H11ZM7,53H51V51H7V23H25.61l-1,3h6.27l-1,9h3.84l4-12H57V55H7Zm53,4v3H4V57Z"/><path d="M54,36H49V31H43v5H38v6h5v5h6V42h5Zm-2,4H47v5H45V40H40V38h5V33h2v5h5Z"/><path d="M10,42H26V36H10Zm2-4H24v2H12Z"/><rect x="53" y="51" width="2" height="2"/><rect x="9" y="25" width="2" height="2"/><rect x="13" y="25" width="2" height="2"/><rect x="49" y="25" width="2" height="2"/><rect x="53" y="25" width="2" height="2"/></g></svg>