<svg xmlns="http://www.w3.org/2000/svg" viewBox="0 0 64 64" x="0px" y="0px"><title>Brake-car-disc-service</title><g><path d="M33,48A16,16,0,1,0,17,32,16,16,0,0,0,33,48Zm0-30A14,14,0,1,1,19,32,14,14,0,0,1,33,18Z"/><path d="M42,35a3,3,0,1,0-3-3A3,3,0,0,0,42,35Zm0-4a1,1,0,1,1-1,1A1,1,0,0,1,42,31Z"/><path d="M24,35a3,3,0,1,0-3-3A3,3,0,0,0,24,35Zm0-4a1,1,0,1,1-1,1A1,1,0,0,1,24,31Z"/><path d="M33,38a3,3,0,1,0,3,3A3,3,0,0,0,33,38Zm0,4a1,1,0,1,1,1-1A1,1,0,0,1,33,42Z"/><path d="M33,26a3,3,0,1,0-3-3A3,3,0,0,0,33,26Zm0-4a1,1,0,1,1-1,1A1,1,0,0,1,33,22Z"/><path d="M12.43,52.62h.11a3.11,3.11,0,0,0,1.24-.27A28,28,0,1,0,33,4a27.81,27.81,0,0,0-19.22,7.65,3,3,0,0,0-1.35-.27,3,3,0,0,0-2.15,1,30,30,0,0,0,0,39.18A3,3,0,0,0,12.43,52.62ZM33,6A26,26,0,1,1,15.34,51.07l3.59-3.58a3,3,0,0,0,.17-4.05,18,18,0,0,1,0-22.88,3,3,0,0,0-.17-4l-3.59-3.58A25.77,25.77,0,0,1,33,6ZM5,32a28,28,0,0,1,5-15.93l1.8,1.79,1.41-1.42-2-2c.2-.24.38-.49.58-.73a1,1,0,0,1,.72-.34h0a1,1,0,0,1,.72.29l4.25,4.26a1,1,0,0,1,0,1.36,20,20,0,0,0,0,25.42,1,1,0,0,1,0,1.36l-4.25,4.26a1,1,0,0,1-1.47,0c-.2-.24-.38-.49-.58-.73l2-2-1.41-1.42L10,47.93A28,28,0,0,1,5,32Z"/><rect x="45.43" y="17.56" width="2" height="2" transform="translate(0.48 38.29) rotate(-45.02)"/><rect x="49.68" y="16.15" width="2" height="2" transform="translate(2.72 40.86) rotate(-45)"/><rect x="45.43" y="44.43" width="2" height="2" transform="translate(-18.53 46.12) rotate(-44.98)"/><rect x="46.85" y="48.68" width="2" height="2" transform="translate(-21.11 48.39) rotate(-45)"/><rect x="51" y="31" width="2" height="2"/><rect x="55" y="33" width="2" height="2"/><rect x="32" y="12" width="2" height="2"/><rect x="32" y="50" width="2" height="2"/><rect x="34" y="8" width="2" height="2"/><rect x="30" y="54" width="2" height="2"/><path d="M33,36a4,4,0,1,0-4-4A4,4,0,0,0,33,36Zm0-6a2,2,0,1,1-2,2A2,2,0,0,1,33,30Z"/><path d="M10,32a22.68,22.68,0,0,1,2.72-10.79L11,20.27a24.72,24.72,0,0,0,0,23.46l1.76-.94A22.68,22.68,0,0,1,10,32Z"/><rect x="13.62" y="18.27" width="2" height="2" transform="translate(-9.35 15.98) rotate(-45)"/><rect x="13.62" y="43.73" width="2" height="2" transform="translate(-27.35 23.44) rotate(-45)"/></g></svg>