<svg xmlns="http://www.w3.org/2000/svg" viewBox="0 0 64 64" x="0px" y="0px"><title>Car-engine-fix-repair-service</title><g><path d="M59,37V18H53v4H51V16.59L47.41,13H43V11h2V5H27v6h2v2H23.81l-5,2H13v4H11V15H5V34h6V30h2v4h5.72l5,3H51V33h2v4ZM55,20h2V35H55ZM9,32H7V17H9Zm4-4H11V21h2Zm5,4H15V17h3Zm5,2.23-3-1.8V16.68l3-1.2ZM29,7H43V9H29Zm12,4v2H31V11Zm8,24H25V33H49Zm0-4H25V15H46.59L49,17.41Zm2,0V24h2v7Z"/><rect x="27" y="17" width="2" height="2"/><rect x="31" y="17" width="2" height="2"/><rect x="35" y="17" width="2" height="2"/><path d="M7,56H17V54.62l7.47,3.1a17.33,17.33,0,0,0,12.72.14L52.64,52a3.62,3.62,0,0,0,2-1.95,3.67,3.67,0,0,0,.06-2.87,3.63,3.63,0,0,0-2-2,3.58,3.58,0,0,0-2.8,0l-6.49,2.76a2.21,2.21,0,0,0,0-.37A3.5,3.5,0,0,0,40,44H32.24A5.07,5.07,0,0,1,30,43.47,23.37,23.37,0,0,0,19.54,41H17V40H7v1H2v2H7V53H2v2H7ZM17,43h2.54a21.43,21.43,0,0,1,9.55,2.26,7.15,7.15,0,0,0,3.15.74H40a1.5,1.5,0,0,1,.33,3c-.13,0-.26,0-.39,0H28v2H40.06a6.12,6.12,0,0,0,2.31-.48L50.73,47A1.6,1.6,0,0,1,52,47a1.7,1.7,0,0,1,.87,2.26,1.64,1.64,0,0,1-.92.89L36.48,56a15.29,15.29,0,0,1-11.25-.12L17,52.45ZM9,42h6V54H9Z"/></g></svg>