<svg xmlns="http://www.w3.org/2000/svg" viewBox="0 0 64 64" x="0px" y="0px"><title>gear-document-list-Check-service</title><g><path d="M56.5,2H17a6,6,0,0,0-6,6V49H2v7a6,6,0,0,0,6,6H47.5A5.51,5.51,0,0,0,53,56.5V26h9V7.5A5.51,5.51,0,0,0,56.5,2ZM8,60a4,4,0,0,1-4-4V51H42v5.5A5.45,5.45,0,0,0,43.26,60ZM51,7.5v49a3.5,3.5,0,0,1-7,0V49H13V8a4,4,0,0,1,4-4H52.26A5.45,5.45,0,0,0,51,7.5ZM60,24H53V7.5a3.5,3.5,0,0,1,7,0Z"/><path d="M23.14,23.62l-1.75,1.74,4.25,4.25,1.74-1.75a9.53,9.53,0,0,0,1.62.67V31h6V28.53a9.53,9.53,0,0,0,1.62-.67l1.74,1.75,4.25-4.25-1.75-1.74A9.53,9.53,0,0,0,41.53,22H44V16H41.53a9.53,9.53,0,0,0-.67-1.62l1.75-1.74L38.36,8.39l-1.74,1.75A9.53,9.53,0,0,0,35,9.47V7H29V9.47a9.53,9.53,0,0,0-1.62.67L25.64,8.39l-4.25,4.25,1.75,1.74A9.53,9.53,0,0,0,22.47,16H20v6h2.47A9.53,9.53,0,0,0,23.14,23.62ZM22,18h2l.18-.78a7.74,7.74,0,0,1,1-2.47l.43-.68-1.44-1.43,1.42-1.42,1.43,1.44.68-.43a7.74,7.74,0,0,1,2.47-1L31,11V9h2v2l.78.18a7.74,7.74,0,0,1,2.47,1l.68.43,1.43-1.44,1.42,1.42-1.44,1.43.43.68a7.74,7.74,0,0,1,1,2.47L40,18h2v2H40l-.18.78a7.74,7.74,0,0,1-1,2.47l-.43.68,1.44,1.43-1.42,1.42-1.43-1.44-.68.43a7.74,7.74,0,0,1-2.47,1L33,27v2H31V27l-.78-.18a7.74,7.74,0,0,1-2.47-1l-.68-.43-1.43,1.44-1.42-1.42,1.44-1.43-.43-.68a7.74,7.74,0,0,1-1-2.47L24,20H22Z"/><path d="M32,24a5,5,0,1,0-5-5A5,5,0,0,0,32,24Zm0-8a3,3,0,1,1-3,3A3,3,0,0,1,32,16Z"/><rect x="17" y="34" width="16" height="2"/><rect x="17" y="39" width="26" height="2"/><rect x="17" y="44" width="20" height="2"/><rect x="35" y="34" width="2" height="2"/><rect x="39" y="44" width="2" height="2"/><rect x="45" y="39" width="2" height="2"/></g></svg>