<svg xmlns="http://www.w3.org/2000/svg" viewBox="0 0 64 64" x="0px" y="0px"><title>Car-frame-suspension-wheel-tire</title><g><path d="M7,62H17a5,5,0,0,0,5-5V51h6V45h8V43H28V39h6V37H28V31H22V25a5,5,0,0,0-5-5H7a5,5,0,0,0-5,5V57A5,5,0,0,0,7,62ZM22,33h4V49H22ZM4,25a3,3,0,0,1,3-3V58H9V22h6V52h2V22a3,3,0,0,1,3,3V57a3,3,0,0,1-3,3V58H15v2H7a3,3,0,0,1-3-3Z"/><rect x="15" y="54" width="2" height="2"/><path d="M54,37H48v2h6v4H46v2h8v3h8V34H54Zm2-1h4V46H56Z"/><path d="M36,13v1H34v2H48V14H46V13a5,5,0,0,0-2.21-4.14,4,4,0,1,0-5.58,0A5,5,0,0,0,36,13Zm5-9a2,2,0,1,1-2,2A2,2,0,0,1,41,4Zm-3,9a3,3,0,0,1,6,0v1H38Z"/><path d="M34,33h2v1a5,5,0,0,0,2.21,4.14,4,4,0,1,0,5.58,0A5,5,0,0,0,46,34V33h2V31H34Zm7,10a2,2,0,1,1,2-2A2,2,0,0,1,41,43ZM38,33h6v1a3,3,0,0,1-6,0Z"/><polygon points="34 21 48 20 48 18 34 19 34 21"/><polygon points="34 25 48 24 48 22 34 23 34 25"/><polygon points="34 29 48 28 48 26 34 27 34 29"/><rect x="40" y="11" width="2" height="2"/><rect x="40" y="34" width="2" height="2"/></g></svg>