<svg xmlns="http://www.w3.org/2000/svg" viewBox="0 0 64 64" x="0px" y="0px"><title>Car-tire-wheel-Automobile-service</title><g><rect x="36" y="9" width="2" height="2"/><rect x="8" y="35" width="2" height="2"/><rect x="20" y="45" width="2" height="2"/><path d="M44,24c-.33,0-.66,0-1,.05A4.93,4.93,0,0,0,42,23a5,5,0,0,0,2-4V9a5,5,0,0,0-5-5H7A5,5,0,0,0,2,9V19a5,5,0,0,0,2,4,5,5,0,0,0-2,4V37a5,5,0,0,0,2,4,5,5,0,0,0-2,4V55a5,5,0,0,0,5,5H39a4.82,4.82,0,0,0,1.68-.32A18.23,18.23,0,0,0,44,60a18,18,0,0,0,0-36ZM4,19H40V17H4V11H34V9H4A3,3,0,0,1,7,6H39a3,3,0,0,1,3,3H40v2h2v8a3,3,0,0,1-3,3H7A3,3,0,0,1,4,19ZM4,37H6V35H4V27a3,3,0,0,1,3-3H39a3,3,0,0,1,1.39.37A17.85,17.85,0,0,0,34,27v0H6v2H31.58a18.07,18.07,0,0,0-4.16,6H12v2H26.72a17.52,17.52,0,0,0-.6,3H7A3,3,0,0,1,4,37ZM4,47H18V45H4a3,3,0,0,1,3-3H26a18.59,18.59,0,0,0,.27,3H24v2h2.72a18,18,0,0,0,3.06,6H4ZM7,58a3,3,0,0,1-3-3H31.58a18.21,18.21,0,0,0,4.21,3ZM56.62,35.87l1.69-1A15.93,15.93,0,0,1,60,41H58v2h2a15.93,15.93,0,0,1-1.64,6.11l-1.69-1-1,1.74,1.7,1a16.12,16.12,0,0,1-4.47,4.47l-1-1.7-1.74,1,1,1.69A15.93,15.93,0,0,1,45,58V56H43v2a15.93,15.93,0,0,1-6.11-1.64l1-1.69-1.74-1-1,1.7a16.12,16.12,0,0,1-4.47-4.47l1.7-1-1-1.74-1.69,1A15.93,15.93,0,0,1,28.05,43H30V41H28.05a15.93,15.93,0,0,1,1.64-6.11l1.69,1,1-1.74-1.7-1a16.12,16.12,0,0,1,4.47-4.47l1,1.7,1.74-1-1-1.69A15.93,15.93,0,0,1,43,26.05V28h2V26.05a15.93,15.93,0,0,1,6.11,1.64l-1,1.69,1.74,1,1-1.7a16.12,16.12,0,0,1,4.47,4.47l-1.7,1Z"/><path d="M44,30A12,12,0,1,0,56,42,12,12,0,0,0,44,30Zm1,2a10,10,0,0,1,7.1,4.12l-5.25,3A4,4,0,0,0,45,38.14Zm-2,0v6.09a4,4,0,0,0-1.85,1.06l-5.25-3A10,10,0,0,1,43,32.05ZM34.89,46.1a9.89,9.89,0,0,1,0-8.2l5.27,3a3.59,3.59,0,0,0,0,2.12ZM43,52a10,10,0,0,1-7.1-4.12l5.25-3A4,4,0,0,0,43,45.86ZM42,42a2,2,0,1,1,2,2A2,2,0,0,1,42,42Zm3,10V45.86a4,4,0,0,0,1.85-1.06l5.25,3A10,10,0,0,1,45,52Zm9-10a9.86,9.86,0,0,1-.89,4.1l-5.27-3a3.59,3.59,0,0,0,0-2.12l5.27-3A9.86,9.86,0,0,1,54,42Z"/></g></svg>